<?xml version="1.0" encoding="UTF-8" standalone="no"?>
<!-- Created with Inkscape (http://www.inkscape.org/) -->

<svg
   width="397mm"
   height="210mm"
   viewBox="0 0 397 210"
   version="1.1"
   id="svg1"
   inkscape:version="1.3.2 (091e20e, 2023-11-25, custom)"
   sodipodi:docname="madeByESE.svg"
   xmlns:inkscape="http://www.inkscape.org/namespaces/inkscape"
   xmlns:sodipodi="http://sodipodi.sourceforge.net/DTD/sodipodi-0.dtd"
   xmlns="http://www.w3.org/2000/svg"
   xmlns:svg="http://www.w3.org/2000/svg">
  <sodipodi:namedview
     id="namedview1"
     pagecolor="#ffffff"
     bordercolor="#666666"
     borderopacity="1.0"
     inkscape:showpageshadow="2"
     inkscape:pageopacity="0.0"
     inkscape:pagecheckerboard="0"
     inkscape:deskcolor="#d1d1d1"
     inkscape:document-units="mm"
     inkscape:zoom="0.70110129"
     inkscape:cx="758.80619"
     inkscape:cy="571.24414"
     inkscape:window-width="1920"
     inkscape:window-height="1001"
     inkscape:window-x="-9"
     inkscape:window-y="-9"
     inkscape:window-maximized="1"
     inkscape:current-layer="layer1" />
  <defs
     id="defs1" />
  <g
     inkscape:groupmode="layer"
     id="layer2"
     inkscape:label="Laag 2" />
  <g
     inkscape:label="Laag 1"
     inkscape:groupmode="layer"
     id="layer1">
    <rect
       style="fill:#ff0056;fill-opacity:1;stroke:#ff0056;stroke-width:0.49188;stroke-miterlimit:1;stroke-opacity:1"
       id="rect1"
       width="375.88104"
       height="68.691734"
       x="8.2983532"
       y="75.182724" />
    <path
       d="m 141.65486,105.89488 q 0.54934,-2.04752 2.09747,-3.44583 1.59807,-1.44825 4.09505,-1.44825 1.34837,0 2.34716,0.39952 0.9988,0.39951 1.69795,1.09867 0.69916,0.6492 1.14861,1.54813 0.4994,0.8989 0.7491,1.84776 h 0.0999 q 0.29964,-0.89892 0.84897,-1.74788 0.59928,-0.89893 1.39831,-1.59808 0.84898,-0.69916 1.94765,-1.09867 1.09867,-0.44946 2.49698,-0.44946 2.09747,0 3.34596,0.89891 1.29843,0.84898 1.99759,2.29723 0.69915,1.44825 0.94885,3.34595 0.2497,1.84777 0.2497,3.79543 V 127.319 h -5.64318 v -15.98069 q 0,-0.94886 -0.0999,-1.89771 -0.0999,-0.9988 -0.44946,-1.79784 -0.29964,-0.79903 -0.94885,-1.24849 -0.59928,-0.49939 -1.59807,-0.49939 -1.89771,0 -3.04632,1.8977 -1.09867,1.89772 -1.09867,4.79422 v 14.7322 h -5.54331 v -15.98069 q 0,-0.94886 -0.0999,-1.89771 -0.0999,-0.9988 -0.44945,-1.79784 -0.29964,-0.79903 -0.89892,-1.24849 -0.59927,-0.49939 -1.59807,-0.49939 -1.8977,0 -2.99637,1.8977 -1.04874,1.89772 -1.04874,4.74428 V 127.319 h -5.59324 v -25.46923 h 5.5433 v 4.04511 z m 42.39877,9.48854 h -1.64801 q -1.04873,0 -2.04753,0.19976 -0.94885,0.14982 -1.69794,0.64921 -0.7491,0.4994 -1.19856,1.39831 -0.44945,0.84898 -0.44945,2.19735 0,1.99759 0.84897,2.94644 0.89891,0.94885 2.04753,0.94885 1.14861,0 1.94764,-0.64921 0.79904,-0.64922 1.2485,-1.64801 0.49939,-0.99879 0.69915,-2.19735 0.2497,-1.24849 0.2497,-2.3971 z m 0.19976,8.14016 q -0.54934,2.09747 -1.99759,3.29602 -1.44825,1.14861 -3.84535,1.14861 -1.09868,0 -2.24729,-0.39951 -1.14861,-0.39952 -2.09746,-1.29843 -0.89892,-0.94886 -1.49819,-2.39711 -0.59928,-1.49819 -0.59928,-3.59565 0,-2.69675 0.94886,-4.39469 0.99879,-1.74789 2.49698,-2.74668 1.54813,-0.9988 3.39589,-1.34838 1.89771,-0.39951 3.69554,-0.39951 h 1.39831 v -0.79904 q 0,-2.54693 -1.04873,-3.6456 -0.9988,-1.14861 -2.69674,-1.14861 -1.44825,0 -2.64681,0.69915 -1.14861,0.64922 -1.99758,1.74789 l -2.69674,-3.54572 q 1.39831,-1.74787 3.54571,-2.69674 2.14741,-0.99879 4.24487,-0.99879 2.34717,0 3.94524,0.74909 1.64801,0.7491 2.6468,2.19735 0.99879,1.39831 1.39831,3.49577 0.44946,2.09748 0.44946,4.74428 V 127.319 h -4.69433 v -3.79542 z m 23.72131,3.79542 v -3.6456 h -0.0999 q -0.54934,1.89771 -1.89771,3.19614 -1.29843,1.29843 -3.79541,1.29843 -1.94765,0 -3.49578,-1.04873 -1.54813,-1.04873 -2.59686,-2.8965 -1.04873,-1.89771 -1.59807,-4.39469 -0.54933,-2.54692 -0.54933,-5.49336 0,-2.8965 0.49939,-5.34355 0.54934,-2.44704 1.59807,-4.19494 1.04873,-1.79783 2.54692,-2.79662 1.54813,-0.99879 3.59566,-0.99879 2.09747,0 3.54572,1.19855 1.44825,1.14861 1.99758,2.8965 h 0.14982 V 89.564614 h 5.5433 V 127.319 Z m 0.0999,-12.73461 q 0,-1.84777 -0.29964,-3.3959 -0.2497,-1.59807 -0.79903,-2.74668 -0.4994,-1.19855 -1.34837,-1.84777 -0.79904,-0.69916 -1.84777,-0.69916 -1.09867,0 -1.89771,0.69916 -0.79903,0.64922 -1.29843,1.84777 -0.49939,1.14861 -0.74909,2.74668 -0.2497,1.54813 -0.2497,3.3959 0,1.79782 0.2497,3.39589 0.2497,1.54813 0.74909,2.74668 0.4994,1.14862 1.29843,1.84777 0.79904,0.64922 1.89771,0.64922 1.09867,0 1.89771,-0.64922 0.79903,-0.69915 1.29843,-1.84777 0.54933,-1.19855 0.79903,-2.74668 0.29964,-1.59807 0.29964,-3.39589 z m 16.18045,1.44825 q 0,1.49819 0.29964,2.84656 0.29964,1.29843 0.84898,2.29722 0.59927,0.94885 1.39831,1.54813 0.84897,0.54934 1.94764,0.54934 1.54813,0 2.44705,-0.9988 0.94885,-0.99879 1.49819,-2.29722 l 4.14499,2.3971 q -1.09867,2.6468 -3.1462,4.24487 -1.99759,1.54813 -5.14378,1.54813 -4.44463,0 -7.14138,-3.49577 -2.69673,-3.49578 -2.69673,-10.03787 0,-3.04632 0.69915,-5.54331 0.69916,-2.54692 1.99758,-4.34475 1.29844,-1.79782 3.04632,-2.74668 1.79783,-0.99879 3.99518,-0.99879 2.44704,0 4.14499,0.99879 1.74789,0.99879 2.79662,2.74668 1.09867,1.69795 1.59807,4.04512 0.49939,2.34716 0.49939,5.09384 v 2.14741 z m 7.84053,-4.09506 q 0,-2.84656 -0.89891,-4.59445 -0.89892,-1.79783 -2.79662,-1.79783 -1.09868,0 -1.89771,0.64921 -0.7491,0.64922 -1.24849,1.64801 -0.44946,0.94886 -0.69916,2.09748 -0.2497,1.09867 -0.2497,1.99758 z m 20.27549,-22.372965 h 5.64318 V 105.0459 h 0.0999 q 0.54934,-1.74788 1.99759,-2.8965 1.44825,-1.14861 3.54571,-1.14861 1.99759,0 3.54572,0.99879 1.54813,0.99879 2.59686,2.79662 1.04874,1.7479 1.54813,4.19494 0.54934,2.44705 0.54934,5.34355 0,2.94644 -0.54934,5.49336 -0.54933,2.49698 -1.59807,4.39469 -1.04873,1.84777 -2.59686,2.8965 -1.54813,1.04873 -3.49578,1.04873 -2.49698,0 -3.79541,-1.29843 -1.29843,-1.29843 -1.89771,-3.19614 h -0.0999 v 3.6456 h -5.49336 z m 5.44343,25.019775 q 0,1.79782 0.24969,3.39589 0.29964,1.54813 0.79904,2.74668 0.54933,1.14862 1.34837,1.84777 0.79903,0.64922 1.84777,0.64922 1.09867,0 1.84776,-0.64922 0.79904,-0.69915 1.29843,-1.84777 0.4994,-1.19855 0.7491,-2.74668 0.2497,-1.59807 0.2497,-3.39589 0,-1.79783 -0.2497,-3.3959 -0.2497,-1.59807 -0.7491,-2.74668 -0.49939,-1.19855 -1.29843,-1.84777 -0.74909,-0.69916 -1.84776,-0.69916 -1.04874,0 -1.84777,0.69916 -0.79904,0.64922 -1.34837,1.84777 -0.4994,1.14861 -0.79904,2.74668 -0.24969,1.59807 -0.24969,3.3959 z m 29.21472,16.23038 q -0.49939,1.89771 -1.19855,3.44584 -0.64921,1.59807 -1.64801,2.69674 -0.99879,1.14861 -2.3971,1.74789 -1.34837,0.59927 -3.19614,0.59927 -0.99879,0 -1.94764,-0.14981 -0.89892,-0.0999 -1.49819,-0.29964 l 0.69915,-5.09385 q 0.39952,0.14982 0.94885,0.2497 0.59928,0.14982 1.14862,0.14982 1.34837,0 2.04752,-0.84897 0.69916,-0.79904 1.04874,-2.24729 l 0.74909,-3.1462 -7.44101,-26.0685 h 5.94282 l 4.44463,19.17683 h 0.14982 l 4.04511,-19.17683 h 5.74306 z M 308.50326,127.319 V 91.961715 h 15.83087 v 5.2936 H 314.2463 v 9.388665 h 9.33871 v 4.89409 h -9.33871 v 10.43738 h 10.58721 V 127.319 Z M 344.1602,98.803445 q -1.94764,-2.34716 -4.89408,-2.34716 -0.84898,0 -1.64801,0.29964 -0.79904,0.2497 -1.44825,0.848969 -0.64922,0.59928 -1.04874,1.54813 -0.34957,0.948846 -0.34957,2.247296 0,2.24728 1.34837,3.49576 1.34837,1.19856 3.54571,2.29724 1.29843,0.6492 2.6468,1.49818 1.34838,0.84898 2.44705,2.04753 1.09867,1.19855 1.79783,2.84656 0.69915,1.64801 0.69915,3.8953 0,2.59686 -0.84897,4.59444 -0.79904,1.99759 -2.19735,3.3959 -1.34837,1.34837 -3.19614,2.04753 -1.84776,0.69915 -3.89529,0.69915 -2.94644,0 -5.44342,-1.14861 -2.49699,-1.14861 -3.99518,-2.8965 l 3.24608,-4.39469 q 1.14861,1.39831 2.74668,2.19734 1.64801,0.79904 3.34596,0.79904 1.89771,0 3.1462,-1.29843 1.24849,-1.29843 1.24849,-3.6456 0,-2.29722 -1.49819,-3.64559 -1.49819,-1.34837 -3.79541,-2.49698 -1.44825,-0.69916 -2.74668,-1.54813 -1.2485,-0.84898 -2.24729,-1.99759 -0.94885,-1.19855 -1.54813,-2.74669 -0.54933,-1.59807 -0.54933,-3.79541 0,-2.746685 0.84897,-4.694325 0.89891,-1.99759 2.29722,-3.29602 1.44825,-1.29843 3.24608,-1.89771 1.79783,-0.64921 3.6456,-0.64921 2.69674,0 4.7942,0.89891 2.14741,0.84897 3.59566,2.54692 z M 352.69985,127.319 V 91.961715 h 15.83088 v 5.2936 h -10.08782 v 9.388665 h 9.33872 v 4.89409 h -9.33872 v 10.43738 h 10.58721 v 5.34355 z"
       id="text1"
       style="font-size:50.8px;line-height:1.25;font-family:'Avenir Next Condensed';-inkscape-font-specification:'Avenir Next Condensed, ';text-align:end;text-anchor:end;fill:#fefefe;fill-opacity:1;stroke:#ffffff;stroke-width:0.260102;stroke-opacity:1"
       aria-label="made by ESE"
       inkscape:label="madeByESE" />
  </g>
</svg>
